<svg width="20" height="20" viewBox="0 0 20 20" fill="none" xmlns="http://www.w3.org/2000/svg">
<path d="M10.0016 5.91797C8.24844 5.91797 6.82031 7.34609 6.82031 9.09922C6.82031 10.0242 7.87656 11.8242 9.64219 13.9117C9.82344 14.1273 10.1766 14.1273 10.3578 13.9117C12.1516 11.793 13.1797 10.0367 13.1797 9.09922C13.1797 7.34609 11.7516 5.91797 9.99844 5.91797H10.0016ZM10.0016 9.99922C9.24844 9.99922 8.63906 9.38672 8.63906 8.63672C8.63906 7.88672 9.25156 7.27422 10.0016 7.27422C10.7516 7.27422 11.3641 7.88672 11.3641 8.63672C11.3641 9.38672 10.7516 9.99922 10.0016 9.99922Z" fill="#FFDE00"/>
<path d="M10 9.08984C10.2503 9.08984 10.4531 8.88697 10.4531 8.63672C10.4531 8.38646 10.2503 8.18359 10 8.18359C9.74975 8.18359 9.54688 8.38646 9.54688 8.63672C9.54688 8.88697 9.74975 9.08984 10 9.08984Z" fill="#FFDE00"/>
<path d="M10 0C4.47813 0 0 4.47813 0 10C0 15.5219 4.47813 20 10 20C15.5219 20 20 15.5219 20 10C20 4.47813 15.5219 0 10 0ZM11.0531 14.5031C10.7906 14.8125 10.4062 14.9906 10 14.9906C9.59375 14.9906 9.20937 14.8125 8.94687 14.5031C7.55937 12.8656 5.90938 10.6 5.90938 9.10312C5.90938 6.84687 7.74375 5.0125 10 5.0125C12.2563 5.0125 14.0906 6.84687 14.0906 9.10312C14.0906 10.6 12.4375 12.8656 11.0531 14.5031Z" fill="#FFDE00"/>
</svg>
